<?xml version="1.0" encoding="utf-8"?>
<!-- Generator: Adobe Illustrator 24.0.0, SVG Export Plug-In . SVG Version: 6.00 Build 0)  -->
<svg version="1.1" id="Layer_1" xmlns="http://www.w3.org/2000/svg" xmlns:xlink="http://www.w3.org/1999/xlink" x="0px" y="0px"
	 viewBox="0 0 48 48" style="enable-background:new 0 0 48 48;" xml:space="preserve">
<style type="text/css">
	.st0{fill-rule:evenodd;clip-rule:evenodd;fill:#FFFFFF;}
</style>
<path class="st0" d="M13,15H9.5c-1,0-1.2,0.5-1.2,1c0,0.9,1.2,5.5,5.5,11.6c2.9,4.2,7,6.4,10.7,6.4c2.2,0,2.5-0.5,2.5-1.4v-3.1
	c0-1,0.2-1.2,0.9-1.2c0.5,0,1.4,0.3,3.5,2.3c2.4,2.4,2.8,3.4,4.1,3.4H39c1,0,1.5-0.5,1.2-1.5c-0.3-1-1.4-2.4-3-4.1
	c-0.8-1-2-2-2.4-2.5c-0.5-0.7-0.4-1,0-1.6c0,0,4.3-6,4.7-8c0.2-0.7,0-1.3-1.1-1.3H35c-0.9,0-1.3,0.5-1.5,1c0,0-1.8,4.3-4.3,7.2
	c-0.8,0.8-1.2,1.1-1.6,1.1c-0.2,0-0.5-0.3-0.5-1v-6.9c0-0.9-0.3-1.3-1-1.3h-5.5c-0.6,0-0.9,0.4-0.9,0.8c0,0.8,1.3,1,1.4,3.4v5.2
	c0,1.1-0.2,1.3-0.6,1.3c-1.2,0-4.1-4.4-5.8-9.3C14.2,15.4,13.9,15,13,15z"/>
</svg>
