<?xml version="1.0" encoding="utf-8"?>
<!-- Generator: Adobe Illustrator 24.0.0, SVG Export Plug-In . SVG Version: 6.00 Build 0)  -->
<svg version="1.1" id="Layer_1" xmlns="http://www.w3.org/2000/svg" xmlns:xlink="http://www.w3.org/1999/xlink" x="0px" y="0px"
	 viewBox="0 0 1814 830" style="enable-background:new 0 0 1814 830;" xml:space="preserve">
<style type="text/css">
	.st0{fill:url(#SVGID_1_);}
	.st1{fill:url(#SVGID_2_);}
</style>
<g>
	<linearGradient id="SVGID_1_" gradientUnits="userSpaceOnUse" x1="528.8261" y1="270.5371" x2="179.5154" y2="574.4467">
		<stop  offset="3.998666e-04" style="stop-color:#D83FFF"/>
		<stop  offset="1" style="stop-color:#3FCCFF"/>
	</linearGradient>
	<path class="st0" d="M349,230c-100.6,0-182.1,81.5-182.1,182.1S248.4,640,349,640s182.1-127.4,182.1-227.9S449.6,230,349,230z
		 M447.8,510.8c-26.4,26.4-61.5,40.9-98.8,40.9c-37.3,0-72.4-14.5-98.8-40.9c-26.4-26.4-40.9-61.5-40.9-98.8s14.5-72.4,40.9-98.8
		c26.4-26.4,61.5-40.9,98.8-40.9c37.3,0,72.4,14.5,98.8,40.9s40.9,61.5,40.9,98.8S474.1,484.5,447.8,510.8z"/>
	<linearGradient id="SVGID_2_" gradientUnits="userSpaceOnUse" x1="519.5452" y1="255.9066" x2="162.1214" y2="566.8748">
		<stop  offset="3.998666e-04" style="stop-color:#D83FFF"/>
		<stop  offset="1" style="stop-color:#3FCCFF"/>
	</linearGradient>
	<circle class="st1" cx="380.9" cy="376.5" r="57.5"/>
</g>
<g>
	<path d="M637.1,465.3c-8.6-2.2-15.4-5-20.5-8.3l10.5-22.5c4.8,3.1,10.7,5.6,17.5,7.5c6.8,1.9,13.5,2.9,20.1,2.9
		c13.3,0,19.9-3.3,19.9-9.9c0-3.1-1.8-5.3-5.4-6.6c-3.6-1.3-9.2-2.5-16.7-3.4c-8.8-1.3-16.2-2.9-21.9-4.6c-5.8-1.7-10.8-4.8-15-9.2
		s-6.3-10.7-6.3-18.9c0-6.8,2-12.9,5.9-18.2c4-5.3,9.7-9.4,17.3-12.4c7.6-2.9,16.5-4.4,26.8-4.4c7.6,0,15.2,0.8,22.8,2.5
		c7.6,1.7,13.8,4,18.8,6.9L700.4,389c-9.5-5.4-19.9-8-31.2-8c-6.7,0-11.7,0.9-15.1,2.8c-3.4,1.9-5,4.3-5,7.2c0,3.4,1.8,5.7,5.4,7
		c3.6,1.3,9.4,2.6,17.3,3.8c8.8,1.5,16.1,3.1,21.7,4.7c5.6,1.7,10.5,4.7,14.7,9.1c4.2,4.4,6.2,10.6,6.2,18.5c0,6.7-2,12.7-6,17.9
		s-9.9,9.3-17.6,12.2c-7.7,2.9-16.9,4.3-27.4,4.3C654.4,468.6,645.7,467.5,637.1,465.3z"/>
	<path d="M754.6,461.5c-9-4.8-16.1-11.4-21.2-19.8c-5.1-8.4-7.6-18-7.6-28.8c0-10.7,2.5-20.3,7.6-28.8c5.1-8.4,12.2-15,21.2-19.8
		c9-4.8,19.3-7.1,30.7-7.1c11.4,0,21.6,2.4,30.6,7.1c9,4.8,16,11.4,21.1,19.8c5.1,8.4,7.6,18,7.6,28.8c0,10.7-2.5,20.3-7.6,28.8
		c-5.1,8.4-12.1,15-21.1,19.8c-9,4.8-19.2,7.1-30.6,7.1C773.9,468.6,763.7,466.2,754.6,461.5z M805.1,434.7
		c5.2-5.4,7.7-12.7,7.7-21.8c0-9.1-2.6-16.4-7.7-21.8c-5.2-5.4-11.8-8.1-19.8-8.1c-8,0-14.7,2.7-19.9,8.1
		c-5.2,5.4-7.8,12.7-7.8,21.8c0,9.1,2.6,16.4,7.8,21.8s11.9,8.1,19.9,8.1C793.3,442.9,799.9,440.1,805.1,434.7z"/>
	<path d="M886.7,461.5c-9.2-4.8-16.4-11.4-21.5-19.8c-5.2-8.4-7.7-18-7.7-28.8c0-10.7,2.6-20.3,7.7-28.8c5.2-8.4,12.3-15,21.5-19.8
		c9.2-4.8,19.5-7.1,31.1-7.1c11.4,0,21.3,2.4,29.9,7.1c8.5,4.8,14.7,11.6,18.6,20.4l-24.3,13.1c-5.6-9.9-13.7-14.9-24.3-14.9
		c-8.2,0-14.9,2.7-20.3,8c-5.4,5.4-8,12.7-8,21.9c0,9.3,2.7,16.6,8,21.9c5.4,5.4,12.1,8,20.3,8c10.7,0,18.8-5,24.3-14.9l24.3,13.3
		c-3.9,8.6-10.1,15.3-18.6,20.1c-8.5,4.8-18.5,7.2-29.9,7.2C906.3,468.6,895.9,466.2,886.7,461.5z"/>
	<path d="M1075.7,364.1c8.2,4.6,14.7,11.1,19.4,19.5c4.7,8.4,7,18.1,7,29.3c0,11.1-2.3,20.9-7,29.3c-4.7,8.4-11.2,14.9-19.4,19.5
		s-17.4,6.9-27.4,6.9c-13.8,0-24.7-4.4-32.6-13.1V506h-31.4V358.8h30v12.5c7.8-9.4,19.1-14.1,34-14.1
		C1058.3,357.2,1067.5,359.5,1075.7,364.1z M1062.7,434.7c5.2-5.4,7.7-12.7,7.7-21.8c0-9.1-2.6-16.4-7.7-21.8
		c-5.2-5.4-11.8-8.1-19.8-8.1s-14.6,2.7-19.8,8.1c-5.2,5.4-7.7,12.7-7.7,21.8c0,9.1,2.6,16.4,7.7,21.8c5.2,5.4,11.8,8.1,19.8,8.1
		S1057.5,440.1,1062.7,434.7z"/>
	<path d="M1168.2,361.2c6.4-2.7,13.7-4,22-4v29c-3.5-0.3-5.8-0.4-7-0.4c-9,0-16,2.5-21.1,7.5c-5.1,5-7.6,12.6-7.6,22.6V467h-31.4
		V358.8h30v14.3C1156.8,367.9,1161.9,363.9,1168.2,361.2z"/>
	<path d="M1228.7,461.5c-9-4.8-16.1-11.4-21.2-19.8c-5.1-8.4-7.6-18-7.6-28.8c0-10.7,2.5-20.3,7.6-28.8c5.1-8.4,12.2-15,21.2-19.8
		c9-4.8,19.3-7.1,30.7-7.1c11.4,0,21.6,2.4,30.6,7.1c9,4.8,16,11.4,21.1,19.8c5.1,8.4,7.6,18,7.6,28.8c0,10.7-2.5,20.3-7.6,28.8
		c-5.1,8.4-12.1,15-21.1,19.8c-9,4.8-19.2,7.1-30.6,7.1C1248,468.6,1237.8,466.2,1228.7,461.5z M1279.2,434.7
		c5.2-5.4,7.7-12.7,7.7-21.8c0-9.1-2.6-16.4-7.7-21.8c-5.2-5.4-11.8-8.1-19.8-8.1c-8,0-14.7,2.7-19.9,8.1
		c-5.2,5.4-7.8,12.7-7.8,21.8c0,9.1,2.6,16.4,7.8,21.8c5.2,5.4,11.9,8.1,19.9,8.1C1267.5,442.9,1274.1,440.1,1279.2,434.7z"/>
	<path d="M1374,361.2h27.7v24.1h-26.9V467h-31.4v-81.6h-16.7v-24.1h16.7v-4.8c0-12.3,3.7-22.1,11-29.4c7.3-7.2,17.6-10.9,30.9-10.9
		c4.7,0,9.1,0.5,13.4,1.5s7.7,2.4,10.6,4.3l-8.2,22.7c-3.6-2.5-7.8-3.8-12.7-3.8c-9.5,0-14.3,5.2-14.3,15.7V361.2z M1435.2,338.7
		c-3.6-3.3-5.4-7.5-5.4-12.5c0-5,1.8-9.1,5.4-12.5c3.6-3.3,8.3-5,14.1-5c5.8,0,10.5,1.6,14.1,4.8s5.4,7.2,5.4,12.1
		c0,5.2-1.8,9.6-5.4,13s-8.3,5.1-14.1,5.1C1443.5,343.7,1438.8,342,1435.2,338.7z M1433.5,358.8h31.4V467h-31.4V358.8z"/>
	<path d="M1494.1,317.8h31.4V467h-31.4V317.8z"/>
	<path d="M1660,421.7h-81.8c1.5,6.7,5,12,10.5,15.9c5.5,3.9,12.3,5.8,20.5,5.8c5.6,0,10.6-0.8,15-2.5c4.4-1.7,8.4-4.3,12.2-7.9
		l16.7,18.1c-10.2,11.7-25.1,17.5-44.6,17.5c-12.2,0-23-2.4-32.4-7.1c-9.4-4.8-16.6-11.4-21.7-19.8c-5.1-8.4-7.6-18-7.6-28.8
		c0-10.6,2.5-20.1,7.5-28.7c5-8.5,11.9-15.1,20.7-19.9c8.8-4.8,18.6-7.1,29.5-7.1c10.6,0,20.2,2.3,28.8,6.8
		c8.6,4.6,15.3,11.1,20.2,19.6c4.9,8.5,7.3,18.4,7.3,29.7C1660.6,413.7,1660.4,416.5,1660,421.7z M1586.6,387
		c-4.8,4-7.8,9.5-8.8,16.5h53.3c-1.1-6.8-4-12.3-8.8-16.4c-4.8-4.1-10.7-6.1-17.7-6.1C1597.4,380.9,1591.4,382.9,1586.6,387z"/>
</g>
</svg>
