<?xml version="1.0" encoding="utf-8"?>
<!-- Generator: Adobe Illustrator 24.0.0, SVG Export Plug-In . SVG Version: 6.00 Build 0)  -->
<svg version="1.1" id="Layer_1" xmlns="http://www.w3.org/2000/svg" xmlns:xlink="http://www.w3.org/1999/xlink" x="0px" y="0px"
	 viewBox="0 0 64 64" style="enable-background:new 0 0 64 64;" xml:space="preserve">
<style type="text/css">
	.st0{fill:#FFFFFF;}
	.st1{clip-path:url(#SVGID_5_);}
	.st2{clip-path:url(#SVGID_6_);}
	.st3{clip-path:url(#SVGID_7_);}
	.st4{clip-path:url(#SVGID_13_);}
	.st5{clip-path:url(#SVGID_14_);}
	.st6{clip-path:url(#SVGID_15_);}
	.st7{clip-path:url(#SVGID_16_);fill:#3E82F1;}
	.st8{clip-path:url(#SVGID_21_);}
	.st9{clip-path:url(#SVGID_22_);}
	.st10{clip-path:url(#SVGID_23_);}
	.st11{clip-path:url(#SVGID_24_);fill:#32A753;}
	.st12{clip-path:url(#SVGID_29_);}
	.st13{clip-path:url(#SVGID_30_);}
	.st14{clip-path:url(#SVGID_31_);}
	.st15{clip-path:url(#SVGID_32_);fill:#F9BB00;}
	.st16{clip-path:url(#SVGID_34_);fill:#E74133;}
</style>
<circle class="st0" cx="32.9" cy="33" r="20.3"/>
<g>
	<defs>
		<rect id="SVGID_1_" x="10" y="10" width="46" height="46"/>
	</defs>
	<defs>
		<path id="SVGID_2_" d="M15,13c-1.1,0-2,0.9-2,2v36c0,1.1,0.9,2,2,2h36c1.1,0,2-0.9,2-2V15c0-1.1-0.9-2-2-2H15L15,13z M15,13"/>
	</defs>
	<defs>
		<path id="SVGID_3_" d="M9,9h48v48H9V9z M9,9"/>
	</defs>
	<defs>
		<rect id="SVGID_4_" x="10" y="-736" width="612" height="792"/>
	</defs>
	<clipPath id="SVGID_5_">
		<use xlink:href="#SVGID_1_"  style="overflow:visible;"/>
	</clipPath>
	<clipPath id="SVGID_6_" class="st1">
		<use xlink:href="#SVGID_2_"  style="overflow:visible;"/>
	</clipPath>
	<clipPath id="SVGID_7_" class="st2">
		<use xlink:href="#SVGID_3_"  style="overflow:visible;"/>
	</clipPath>
	<clipPath id="SVGID_8_" class="st3">
		<use xlink:href="#SVGID_4_"  style="overflow:visible;"/>
	</clipPath>
</g>
<g>
	<g>
		<defs>
			<rect id="SVGID_9_" x="10" y="10" width="46" height="46"/>
		</defs>
		<defs>
			<path id="SVGID_10_" d="M41.6,33.2c0-0.6-0.1-1.3-0.2-1.8H33v3.5h4.8C37.6,36,37,36.9,36,37.6v2.3H39
				C40.7,38.3,41.6,35.9,41.6,33.2L41.6,33.2L41.6,33.2z M41.6,33.2"/>
		</defs>
		<defs>
			<path id="SVGID_11_" d="M9,9h48v48H9V9z M9,9"/>
		</defs>
		<defs>
			<rect id="SVGID_12_" x="10" y="-736" width="612" height="792"/>
		</defs>
		<clipPath id="SVGID_13_">
			<use xlink:href="#SVGID_9_"  style="overflow:visible;"/>
		</clipPath>
		<clipPath id="SVGID_14_" class="st4">
			<use xlink:href="#SVGID_10_"  style="overflow:visible;"/>
		</clipPath>
		<clipPath id="SVGID_15_" class="st5">
			<use xlink:href="#SVGID_11_"  style="overflow:visible;"/>
		</clipPath>
		<clipPath id="SVGID_16_" class="st6">
			<use xlink:href="#SVGID_12_"  style="overflow:visible;"/>
		</clipPath>
		<rect x="28" y="26.4" class="st7" width="18.6" height="18.5"/>
	</g>
	<g>
		<defs>
			<rect id="SVGID_17_" x="10" y="10" width="46" height="46"/>
		</defs>
		<defs>
			<path id="SVGID_18_" d="M33,42c2.4,0,4.5-0.8,6-2.2L36,37.6c-0.8,0.5-1.8,0.9-3,0.9c-2.3,0-4.3-1.6-5-3.7h-3V37
				C26.4,40,29.5,42,33,42L33,42L33,42z M33,42"/>
		</defs>
		<defs>
			<path id="SVGID_19_" d="M9,9h48v48H9V9z M9,9"/>
		</defs>
		<defs>
			<rect id="SVGID_20_" x="10" y="-736" width="612" height="792"/>
		</defs>
		<clipPath id="SVGID_21_">
			<use xlink:href="#SVGID_17_"  style="overflow:visible;"/>
		</clipPath>
		<clipPath id="SVGID_22_" class="st8">
			<use xlink:href="#SVGID_18_"  style="overflow:visible;"/>
		</clipPath>
		<clipPath id="SVGID_23_" class="st9">
			<use xlink:href="#SVGID_19_"  style="overflow:visible;"/>
		</clipPath>
		<clipPath id="SVGID_24_" class="st10">
			<use xlink:href="#SVGID_20_"  style="overflow:visible;"/>
		</clipPath>
		<rect x="20" y="29.7" class="st11" width="24" height="17.3"/>
	</g>
	<g>
		<defs>
			<rect id="SVGID_25_" x="10" y="10" width="46" height="46"/>
		</defs>
		<defs>
			<path id="SVGID_26_" d="M28,34.7c-0.2-0.5-0.3-1.1-0.3-1.7c0-0.6,0.1-1.2,0.3-1.7V29h-3c-0.6,1.2-1,2.6-1,4c0,1.5,0.3,2.8,1,4
				L28,34.7L28,34.7L28,34.7z M28,34.7"/>
		</defs>
		<defs>
			<path id="SVGID_27_" d="M9,9h48v48H9V9z M9,9"/>
		</defs>
		<defs>
			<rect id="SVGID_28_" x="10" y="-736" width="612" height="792"/>
		</defs>
		<clipPath id="SVGID_29_">
			<use xlink:href="#SVGID_25_"  style="overflow:visible;"/>
		</clipPath>
		<clipPath id="SVGID_30_" class="st12">
			<use xlink:href="#SVGID_26_"  style="overflow:visible;"/>
		</clipPath>
		<clipPath id="SVGID_31_" class="st13">
			<use xlink:href="#SVGID_27_"  style="overflow:visible;"/>
		</clipPath>
		<clipPath id="SVGID_32_" class="st14">
			<use xlink:href="#SVGID_28_"  style="overflow:visible;"/>
		</clipPath>
		<rect x="19" y="24" class="st15" width="14" height="18.1"/>
	</g>
	<g>
		<defs>
			<path id="SVGID_33_" d="M33,27.6c1.3,0,2.5,0.5,3.4,1.3l2.6-2.6c-1.6-1.5-3.6-2.3-6-2.3c-3.5,0-6.6,2-8,5l3,2.3
				C28.7,29.2,30.7,27.6,33,27.6L33,27.6L33,27.6z M33,27.6"/>
		</defs>
		<clipPath id="SVGID_34_">
			<use xlink:href="#SVGID_33_"  style="overflow:visible;"/>
		</clipPath>
		<rect x="20" y="19" class="st16" width="24.1" height="17.3"/>
	</g>
</g>
</svg>
